<?xml version="1.0" standalone="no"?>
<!DOCTYPE svg PUBLIC "-//W3C//DTD SVG 20010904//EN"
 "http://www.w3.org/TR/2001/REC-SVG-20010904/DTD/svg10.dtd">
<svg version="1.0" xmlns="http://www.w3.org/2000/svg"
 width="182.000000pt" height="182.000000pt" viewBox="0 0 182.000000 182.000000"
 preserveAspectRatio="xMidYMid meet">
<metadata>
Created by potrace 1.14, written by Peter Selinger 2001-2017
</metadata>
<g transform="translate(0.000000,182.000000) scale(0.100000,-0.100000)"
fill="#000000" stroke="none">
<path d="M839 1591 c-52 -52 -39 -135 26 -166 58 -27 136 9 147 68 19 101
-101 170 -173 98z"/>
<path d="M568 1395 c-77 -19 -117 -59 -141 -141 -42 -143 49 -376 252 -643 58
-76 62 -79 106 -83 36 -2 44 0 40 11 -13 33 -56 192 -71 261 -36 167 -24 381
27 482 16 31 17 41 7 57 -28 46 -144 76 -220 56z"/>
<path d="M1155 1402 c-37 -6 -111 -44 -123 -63 -10 -16 -9 -26 7 -57 71 -141
63 -397 -23 -674 l-23 -76 39 -4 c44 -4 48 0 134 117 187 254 264 460 228 603
-16 61 -43 101 -85 126 -31 18 -118 34 -154 28z"/>
<path d="M1560 1230 c-80 -27 -87 -39 -46 -83 88 -96 78 -275 -29 -530 -19
-44 -34 -82 -32 -83 3 -3 58 -6 78 -5 18 1 159 186 208 273 86 152 100 283 39
371 -42 59 -138 84 -218 57z"/>
<path d="M102 1219 c-126 -63 -130 -230 -10 -434 34 -57 109 -162 173 -240 11
-14 90 -24 100 -13 3 3 -5 30 -19 60 -32 69 -71 186 -88 263 -27 118 -9 227
48 293 38 44 35 50 -29 77 -52 21 -124 19 -175 -6z"/>
<path d="M286 345 c3 -41 1 -91 -5 -110 l-9 -35 36 -1 c42 -1 1210 -1 1229 0
9 1 10 8 4 24 -5 13 -8 63 -6 110 l3 87 -629 0 -629 0 6 -75z"/>
<path d="M1580 300 c-24 -24 -25 -48 -4 -78 30 -43 94 -18 94 37 0 30 -27 61
-53 61 -9 0 -26 -9 -37 -20z m64 -9 c10 -11 16 -27 14 -36 -5 -25 -23 -17 -21
9 1 15 -6 27 -20 34 -16 8 -17 11 -6 11 9 1 24 -8 33 -18z m-49 -31 c-1 -17 1
-33 6 -36 5 -3 9 3 9 13 0 15 2 16 10 3 14 -21 12 -30 -5 -30 -20 0 -47 43
-39 64 10 27 22 18 19 -14z"/>
</g>
</svg>
